<mxfile host="Electron" modified="2024-05-11T05:35:37.253Z" agent="Mozilla/5.0 (Windows NT 10.0; Win64; x64) AppleWebKit/537.36 (KHTML, like Gecko) draw.io/24.2.5 Chrome/120.0.6099.109 Electron/28.1.0 Safari/537.36" etag="My1zMEXrJLhr0lqnxg1l" version="24.2.5" type="device">
  <diagram name="ページ1" id="LE8fIzdrHe0wcv1LTvfw">
    <mxGraphModel dx="866" dy="518" grid="1" gridSize="10" guides="1" tooltips="1" connect="1" arrows="1" fold="1" page="1" pageScale="1" pageWidth="1600" pageHeight="1200" math="0" shadow="0">
      <root>
        <mxCell id="0" />
        <mxCell id="cFaB45KztUIKXS-_cTrr-4" value="背景" style="locked=1;" parent="0" visible="0" />
        <mxCell id="cFaB45KztUIKXS-_cTrr-5" value="" style="rounded=0;whiteSpace=wrap;html=1;strokeWidth=3;" parent="cFaB45KztUIKXS-_cTrr-4" vertex="1">
          <mxGeometry x="1" y="1" width="1595" height="1180" as="geometry" />
        </mxCell>
        <mxCell id="cFaB45KztUIKXS-_cTrr-6" value="" style="rounded=0;whiteSpace=wrap;html=1;fillColor=#B3B3B3;fontColor=#333333;strokeColor=#666666;" parent="cFaB45KztUIKXS-_cTrr-4" vertex="1">
          <mxGeometry width="1595" height="60" as="geometry" />
        </mxCell>
        <mxCell id="cFaB45KztUIKXS-_cTrr-7" value="&lt;font style=&quot;font-size: 48px;&quot;&gt;×&lt;/font&gt;" style="rounded=0;whiteSpace=wrap;html=1;" parent="cFaB45KztUIKXS-_cTrr-4" vertex="1">
          <mxGeometry x="1550" y="10" width="40" height="40" as="geometry" />
        </mxCell>
        <mxCell id="cFaB45KztUIKXS-_cTrr-8" value="" style="rounded=0;whiteSpace=wrap;html=1;" parent="cFaB45KztUIKXS-_cTrr-4" vertex="1">
          <mxGeometry x="830" y="670" width="120" height="60" as="geometry" />
        </mxCell>
        <mxCell id="cFaB45KztUIKXS-_cTrr-9" value="ウインドウ" style="locked=1;" parent="0" />
        <mxCell id="cFaB45KztUIKXS-_cTrr-10" value="" style="rounded=0;whiteSpace=wrap;html=1;strokeWidth=3;" parent="cFaB45KztUIKXS-_cTrr-9" vertex="1">
          <mxGeometry x="1" y="1" width="2639" height="2289" as="geometry" />
        </mxCell>
        <mxCell id="cFaB45KztUIKXS-_cTrr-11" value="" style="rounded=0;whiteSpace=wrap;html=1;fillColor=#B3B3B3;fontColor=#333333;strokeColor=#666666;" parent="cFaB45KztUIKXS-_cTrr-9" vertex="1">
          <mxGeometry width="1595" height="60" as="geometry" />
        </mxCell>
        <mxCell id="cFaB45KztUIKXS-_cTrr-12" value="&lt;font style=&quot;font-size: 48px;&quot;&gt;×&lt;/font&gt;" style="rounded=0;whiteSpace=wrap;html=1;" parent="cFaB45KztUIKXS-_cTrr-9" vertex="1">
          <mxGeometry x="1550" y="10" width="40" height="40" as="geometry" />
        </mxCell>
        <mxCell id="cFaB45KztUIKXS-_cTrr-14" value="名称未設定レイヤ" style="" parent="0" />
        <mxCell id="NQJxZghHYys1g4WI1TBl-5" value="" style="rounded=1;whiteSpace=wrap;html=1;" parent="cFaB45KztUIKXS-_cTrr-14" vertex="1">
          <mxGeometry x="47" y="160" width="1043" height="500" as="geometry" />
        </mxCell>
        <mxCell id="NQJxZghHYys1g4WI1TBl-1" value="&lt;font style=&quot;font-size: 30px;&quot;&gt;意見付記&lt;/font&gt;&lt;span style=&quot;font-size: 30px;&quot;&gt;&lt;br&gt;&lt;/span&gt;" style="rounded=0;whiteSpace=wrap;html=1;align=left;verticalAlign=top;fillColor=#CCCCCC;" parent="cFaB45KztUIKXS-_cTrr-14" vertex="1">
          <mxGeometry x="110" y="428" width="920" height="175" as="geometry" />
        </mxCell>
        <mxCell id="NQJxZghHYys1g4WI1TBl-2" value="&lt;span style=&quot;font-size: 30px;&quot;&gt;政治家　太郎&lt;/span&gt;" style="rounded=0;whiteSpace=wrap;html=1;align=left;dashed=1;dashPattern=8 8;verticalAlign=bottom;" parent="cFaB45KztUIKXS-_cTrr-14" vertex="1">
          <mxGeometry x="97" y="226" width="310" height="46" as="geometry" />
        </mxCell>
        <mxCell id="NQJxZghHYys1g4WI1TBl-3" value="&lt;span style=&quot;font-size: 30px;&quot;&gt;さん&lt;/span&gt;" style="rounded=0;whiteSpace=wrap;html=1;align=left;dashed=1;dashPattern=8 8;verticalAlign=bottom;" parent="cFaB45KztUIKXS-_cTrr-14" vertex="1">
          <mxGeometry x="417" y="226" width="133" height="46" as="geometry" />
        </mxCell>
        <mxCell id="NQJxZghHYys1g4WI1TBl-4" value="&lt;span style=&quot;font-size: 30px;&quot;&gt;代表者&lt;/span&gt;" style="rounded=0;whiteSpace=wrap;html=1;align=left;dashed=1;dashPattern=8 8;verticalAlign=bottom;" parent="cFaB45KztUIKXS-_cTrr-14" vertex="1">
          <mxGeometry x="97" y="286" width="310" height="46" as="geometry" />
        </mxCell>
        <mxCell id="NQJxZghHYys1g4WI1TBl-26" value="" style="rounded=1;whiteSpace=wrap;html=1;" parent="cFaB45KztUIKXS-_cTrr-14" vertex="1">
          <mxGeometry x="1177" y="161" width="1043" height="589" as="geometry" />
        </mxCell>
        <mxCell id="NQJxZghHYys1g4WI1TBl-28" value="&lt;font style=&quot;font-size: 30px;&quot;&gt;意見付記&lt;/font&gt;&lt;span style=&quot;font-size: 30px;&quot;&gt;&lt;br&gt;&lt;/span&gt;" style="rounded=0;whiteSpace=wrap;html=1;align=left;verticalAlign=top;fillColor=#CCCCCC;" parent="cFaB45KztUIKXS-_cTrr-14" vertex="1">
          <mxGeometry x="1220" y="489" width="920" height="175" as="geometry" />
        </mxCell>
        <mxCell id="NQJxZghHYys1g4WI1TBl-32" value="&lt;div&gt;&lt;span style=&quot;font-size: 30px;&quot;&gt;&lt;br&gt;&lt;/span&gt;&lt;/div&gt;&lt;span style=&quot;font-size: 30px;&quot;&gt;独自の仕分けを提示します&lt;/span&gt;" style="rounded=0;whiteSpace=wrap;html=1;align=left;dashed=1;dashPattern=8 8;verticalAlign=bottom;fillColor=#FFFFFF;" parent="cFaB45KztUIKXS-_cTrr-14" vertex="1">
          <mxGeometry x="1222.5" y="359" width="916.5" height="46" as="geometry" />
        </mxCell>
        <mxCell id="DXEXjRhc03ldfBuddgmn-39" value="&lt;font style=&quot;font-size: 84px;&quot;&gt;○&lt;/font&gt;" style="text;html=1;strokeColor=none;fillColor=none;align=center;verticalAlign=middle;whiteSpace=wrap;rounded=0;fontSize=60;" parent="cFaB45KztUIKXS-_cTrr-14" vertex="1">
          <mxGeometry x="100" y="175" width="60" height="30" as="geometry" />
        </mxCell>
        <mxCell id="DXEXjRhc03ldfBuddgmn-40" value="&lt;font style=&quot;font-size: 48px;&quot;&gt;●&lt;/font&gt;" style="text;html=1;strokeColor=none;fillColor=none;align=center;verticalAlign=middle;whiteSpace=wrap;rounded=0;fontSize=48;" parent="cFaB45KztUIKXS-_cTrr-14" vertex="1">
          <mxGeometry x="100" y="177" width="60" height="30" as="geometry" />
        </mxCell>
        <mxCell id="DXEXjRhc03ldfBuddgmn-41" value="&lt;font style=&quot;font-size: 30px;&quot;&gt;データ表示&lt;/font&gt;" style="text;html=1;strokeColor=none;fillColor=none;align=left;verticalAlign=middle;whiteSpace=wrap;rounded=0;" parent="cFaB45KztUIKXS-_cTrr-14" vertex="1">
          <mxGeometry x="155" y="164" width="165" height="60" as="geometry" />
        </mxCell>
        <mxCell id="DXEXjRhc03ldfBuddgmn-42" value="&lt;font style=&quot;font-size: 84px;&quot;&gt;○&lt;/font&gt;" style="text;html=1;strokeColor=none;fillColor=none;align=center;verticalAlign=middle;whiteSpace=wrap;rounded=0;fontSize=60;" parent="cFaB45KztUIKXS-_cTrr-14" vertex="1">
          <mxGeometry x="1240" y="188" width="60" height="30" as="geometry" />
        </mxCell>
        <mxCell id="DXEXjRhc03ldfBuddgmn-43" value="&lt;font style=&quot;font-size: 48px;&quot;&gt;●&lt;/font&gt;" style="text;html=1;strokeColor=none;fillColor=none;align=center;verticalAlign=middle;whiteSpace=wrap;rounded=0;fontSize=48;" parent="cFaB45KztUIKXS-_cTrr-14" vertex="1">
          <mxGeometry x="1240" y="190" width="60" height="30" as="geometry" />
        </mxCell>
        <mxCell id="DXEXjRhc03ldfBuddgmn-44" value="&lt;font style=&quot;font-size: 30px;&quot;&gt;データ表示&lt;/font&gt;" style="text;html=1;strokeColor=none;fillColor=none;align=left;verticalAlign=middle;whiteSpace=wrap;rounded=0;" parent="cFaB45KztUIKXS-_cTrr-14" vertex="1">
          <mxGeometry x="1295" y="177" width="165" height="60" as="geometry" />
        </mxCell>
        <mxCell id="g2mGcfA6ekzJkXvk_YAf-0" value="&lt;span style=&quot;font-size: 30px;&quot;&gt;☑前例と異なる処理&lt;/span&gt;" style="rounded=0;whiteSpace=wrap;html=1;align=left;dashed=1;dashPattern=8 8;verticalAlign=bottom;fillColor=#CCCCCC;" parent="cFaB45KztUIKXS-_cTrr-14" vertex="1">
          <mxGeometry x="90" y="351" width="310" height="46" as="geometry" />
        </mxCell>
        <mxCell id="g2mGcfA6ekzJkXvk_YAf-1" value="&lt;span style=&quot;font-size: 30px;&quot;&gt;政治家　太郎&lt;/span&gt;" style="rounded=0;whiteSpace=wrap;html=1;align=left;dashed=1;dashPattern=8 8;verticalAlign=bottom;" parent="cFaB45KztUIKXS-_cTrr-14" vertex="1">
          <mxGeometry x="1227" y="236" width="310" height="46" as="geometry" />
        </mxCell>
        <mxCell id="g2mGcfA6ekzJkXvk_YAf-2" value="&lt;span style=&quot;font-size: 30px;&quot;&gt;さん&lt;/span&gt;" style="rounded=0;whiteSpace=wrap;html=1;align=left;dashed=1;dashPattern=8 8;verticalAlign=bottom;" parent="cFaB45KztUIKXS-_cTrr-14" vertex="1">
          <mxGeometry x="1547" y="236" width="133" height="46" as="geometry" />
        </mxCell>
        <mxCell id="g2mGcfA6ekzJkXvk_YAf-3" value="&lt;span style=&quot;font-size: 30px;&quot;&gt;調査員(1)&lt;/span&gt;" style="rounded=0;whiteSpace=wrap;html=1;align=left;dashed=1;dashPattern=8 8;verticalAlign=bottom;" parent="cFaB45KztUIKXS-_cTrr-14" vertex="1">
          <mxGeometry x="1227" y="296" width="310" height="46" as="geometry" />
        </mxCell>
        <mxCell id="g2mGcfA6ekzJkXvk_YAf-4" value="&lt;span style=&quot;font-size: 30px;&quot;&gt;☑前例と異なる処理&lt;/span&gt;" style="rounded=0;whiteSpace=wrap;html=1;align=left;dashed=1;dashPattern=8 8;verticalAlign=bottom;fillColor=#CCCCCC;" parent="cFaB45KztUIKXS-_cTrr-14" vertex="1">
          <mxGeometry x="1220" y="421" width="310" height="46" as="geometry" />
        </mxCell>
        <mxCell id="j5yBgtIihJ2Io0yYc_IG-0" value="&lt;span style=&quot;font-size: 30px;&quot;&gt;2022/12/22 12:23:34:000&lt;/span&gt;" style="rounded=0;whiteSpace=wrap;html=1;align=left;dashed=1;dashPattern=8 8;verticalAlign=bottom;" vertex="1" parent="cFaB45KztUIKXS-_cTrr-14">
          <mxGeometry x="327" y="166" width="373" height="46" as="geometry" />
        </mxCell>
        <mxCell id="j5yBgtIihJ2Io0yYc_IG-1" value="&lt;span style=&quot;font-size: 30px;&quot;&gt;(&lt;/span&gt;" style="rounded=0;whiteSpace=wrap;html=1;align=left;dashed=1;dashPattern=8 8;verticalAlign=bottom;" vertex="1" parent="cFaB45KztUIKXS-_cTrr-14">
          <mxGeometry x="307" y="165" width="23" height="46" as="geometry" />
        </mxCell>
        <mxCell id="j5yBgtIihJ2Io0yYc_IG-2" value="&lt;span style=&quot;font-size: 30px;&quot;&gt;)入力&lt;/span&gt;" style="rounded=0;whiteSpace=wrap;html=1;align=left;dashed=1;dashPattern=8 8;verticalAlign=bottom;" vertex="1" parent="cFaB45KztUIKXS-_cTrr-14">
          <mxGeometry x="697" y="165" width="133" height="46" as="geometry" />
        </mxCell>
        <mxCell id="j5yBgtIihJ2Io0yYc_IG-3" value="&lt;span style=&quot;font-size: 30px;&quot;&gt;2022/12/22 12:23:34:000&lt;/span&gt;" style="rounded=0;whiteSpace=wrap;html=1;align=left;dashed=1;dashPattern=8 8;verticalAlign=bottom;" vertex="1" parent="cFaB45KztUIKXS-_cTrr-14">
          <mxGeometry x="1467" y="184" width="373" height="46" as="geometry" />
        </mxCell>
        <mxCell id="j5yBgtIihJ2Io0yYc_IG-4" value="&lt;span style=&quot;font-size: 30px;&quot;&gt;(&lt;/span&gt;" style="rounded=0;whiteSpace=wrap;html=1;align=left;dashed=1;dashPattern=8 8;verticalAlign=bottom;" vertex="1" parent="cFaB45KztUIKXS-_cTrr-14">
          <mxGeometry x="1447" y="183" width="23" height="46" as="geometry" />
        </mxCell>
        <mxCell id="j5yBgtIihJ2Io0yYc_IG-5" value="&lt;span style=&quot;font-size: 30px;&quot;&gt;)入力&lt;/span&gt;" style="rounded=0;whiteSpace=wrap;html=1;align=left;dashed=1;dashPattern=8 8;verticalAlign=bottom;" vertex="1" parent="cFaB45KztUIKXS-_cTrr-14">
          <mxGeometry x="1837" y="183" width="133" height="46" as="geometry" />
        </mxCell>
      </root>
    </mxGraphModel>
  </diagram>
</mxfile>
